{"glyphs":{"0":{"ha":803,"x_min":0,"x_max":0,"o":"m 401 -22 b 36 524 132 -22 36 310 b 401 1069 36 739 131 1069 b 767 524 672 1069 767 739 b 401 -22 767 310 671 -22 m 401 958 b 161 525 214 958 161 669 b 401 94 161 381 214 94 b 642 525 589 94 642 381 b 401 958 642 669 589 958 "},"1":{"ha":803,"x_min":0,"x_max":0,"o":"m 171 928 l 243 1047 l 478 1047 l 478 0 l 353 0 l 353 928 "},"2":{"ha":803,"x_min":0,"x_max":0,"o":"m 739 119 l 739 0 l 63 0 l 521 563 b 614 750 564 615 614 681 b 408 950 614 860 517 950 b 207 758 301 950 214 864 l 76 758 b 408 1069 97 944 218 1069 b 739 756 586 1069 739 938 b 661 540 739 678 710 600 l 317 119 "},"3":{"ha":803,"x_min":0,"x_max":0,"o":"m 382 608 b 588 776 494 608 588 650 b 406 956 588 882 510 956 b 232 806 311 956 246 896 l 103 806 b 410 1069 128 978 238 1069 b 713 788 576 1069 713 963 b 579 551 713 685 668 601 b 728 292 682 503 728 404 b 393 -22 728 96 581 -22 b 74 258 229 -22 82 86 l 200 258 b 403 92 213 156 303 92 b 603 297 519 92 603 183 b 382 500 603 431 511 510 "},"4":{"ha":803,"x_min":0,"x_max":0,"o":"m 771 267 l 771 153 l 651 153 l 651 0 l 526 0 l 526 153 l 10 153 l 651 1092 l 651 267 m 526 699 l 524 699 l 229 267 l 526 267 "},"5":{"ha":803,"x_min":0,"x_max":0,"o":"m 404 928 l 339 713 l 413 717 b 749 350 615 717 749 543 b 361 -22 749 129 576 -22 b 42 161 232 -22 103 46 l 139 253 b 371 97 171 164 278 97 b 624 354 513 97 624 214 b 374 603 624 489 508 603 b 178 510 300 603 224 568 l 153 510 l 314 1047 l 733 1047 l 733 928 "},"6":{"ha":803,"x_min":0,"x_max":0,"o":"m 621 1006 l 342 628 l 344 625 b 447 650 375 640 410 650 b 750 322 619 650 750 490 b 404 -22 750 131 594 -22 b 56 313 224 -22 56 128 b 169 589 56 418 108 507 l 526 1069 m 403 94 b 625 308 519 94 625 192 b 403 533 625 439 514 533 b 181 315 289 533 181 429 b 403 94 181 194 283 94 "},"7":{"ha":803,"x_min":0,"x_max":0,"o":"m 65 928 l 65 1047 l 819 1047 l 167 -22 l 65 40 l 607 928 "},"8":{"ha":803,"x_min":0,"x_max":0,"o":"m 401 489 b 199 292 296 489 199 403 b 401 94 199 186 299 94 b 604 292 504 94 604 186 b 401 489 604 403 507 489 m 74 292 b 239 543 74 404 131 506 b 101 778 153 592 101 675 b 401 1069 101 949 235 1069 b 701 778 568 1069 701 949 b 564 543 701 675 650 592 b 729 292 672 506 729 404 b 401 -22 729 97 579 -22 b 74 292 224 -22 74 97 m 401 958 b 224 778 307 958 224 878 b 401 600 224 694 314 600 b 579 778 489 600 579 694 b 401 958 579 878 496 958 "},"9":{"ha":803,"x_min":0,"x_max":0,"o":"m 201 43 l 481 419 l 478 422 b 376 403 447 407 413 403 b 72 725 203 403 72 558 b 418 1069 72 917 228 1069 b 767 735 599 1069 767 919 b 653 458 767 631 714 540 l 296 -22 m 419 514 b 642 733 553 514 642 619 b 428 953 642 844 542 953 b 197 733 303 953 197 853 b 419 514 197 608 311 514 "}," ":{"ha":401,"x_min":0,"x_max":0,"o":""},"!":{"ha":446,"x_min":0,"x_max":0,"o":"m 224 139 b 304 58 268 139 304 101 b 224 -22 304 14 268 -22 b 143 58 179 -22 143 14 b 224 139 143 101 179 139 m 161 1047 l 286 1047 l 286 242 l 161 242 "},"\"":{"ha":610,"x_min":0,"x_max":0,"o":"m 261 1047 l 236 592 l 150 592 l 125 1047 m 485 1047 l 460 592 l 374 592 l 349 1047 "},"#":{"ha":803,"x_min":0,"x_max":0,"o":"m 408 997 l 358 728 l 531 728 l 579 997 l 689 997 l 640 728 l 768 728 l 768 617 l 619 617 l 582 403 l 722 403 l 722 292 l 560 292 l 507 0 l 401 0 l 453 292 l 282 292 l 226 0 l 122 0 l 174 292 l 35 292 l 35 403 l 194 403 l 232 617 l 86 617 l 86 728 l 251 728 l 301 997 m 303 403 l 474 403 l 511 617 l 340 617 "},"$":{"ha":803,"x_min":0,"x_max":0,"o":"m 463 108 b 608 297 547 128 608 208 b 463 485 608 392 539 444 m 393 1194 l 463 1194 l 463 1069 b 700 908 567 1060 650 1001 l 590 846 b 463 949 561 901 522 931 l 463 622 b 733 303 603 561 733 474 b 463 -22 733 153 613 -1 l 463 -154 l 393 -154 l 393 -22 b 69 269 229 -19 94 110 l 194 296 b 393 100 218 178 271 115 l 393 517 l 343 542 b 143 796 233 597 143 660 b 393 1069 143 933 254 1058 m 393 949 b 264 806 321 938 264 879 b 393 656 264 724 324 683 "},"%":{"ha":983,"x_min":0,"x_max":0,"o":"m 268 986 b 107 831 182 986 107 917 b 268 676 107 746 182 676 b 429 831 354 676 429 746 b 268 986 429 917 354 986 m 829 1033 l 218 -22 l 154 13 l 767 1069 m 717 371 b 556 215 631 371 556 301 b 717 61 556 131 631 61 b 878 215 803 61 878 131 b 717 371 878 301 803 371 m 268 1069 b 513 831 400 1069 513 964 b 268 593 513 699 399 593 b 24 831 138 593 24 699 b 268 1069 24 964 136 1069 m 717 454 b 961 215 849 454 961 349 b 717 -22 961 83 847 -22 b 472 215 586 -22 472 83 b 717 454 472 349 585 454 "},"&":{"ha":961,"x_min":0,"x_max":0,"o":"m 386 508 b 196 288 314 458 196 388 b 390 94 196 188 290 94 b 631 233 488 94 565 168 l 399 517 m 443 692 b 568 853 496 733 568 776 b 446 967 568 926 515 967 b 329 856 383 967 329 922 b 392 725 329 803 361 764 l 426 681 m 708 142 b 394 -22 629 49 518 -22 b 74 286 219 -22 74 106 b 257 564 74 419 157 492 l 322 611 b 207 840 263 674 207 751 b 449 1069 207 985 311 1069 b 690 851 576 1069 690 989 b 500 590 690 733 588 654 l 718 326 l 840 468 l 924 382 l 796 232 l 983 0 l 822 0 "},"’":{"ha":385,"x_min":0,"x_max":0,"o":"m 301 1026 l 117 656 l 39 688 l 192 1069 "},"(":{"ha":406,"x_min":0,"x_max":0,"o":"m 326 1047 b 207 428 239 864 207 631 b 326 -192 207 225 239 -8 l 224 -268 b 79 428 121 -67 79 204 b 224 1124 79 653 121 924 "},")":{"ha":406,"x_min":0,"x_max":0,"o":"m 182 1124 b 326 428 285 924 326 653 b 182 -268 326 204 285 -67 l 79 -192 b 199 428 167 -8 199 225 b 79 1047 199 631 167 864 "},"*":{"ha":600,"x_min":0,"x_max":0,"o":"m 351 1047 l 351 915 l 464 982 l 513 900 l 394 831 l 513 761 l 464 681 l 351 750 l 351 617 l 256 617 l 256 751 l 135 683 l 88 763 l 206 831 l 89 900 l 132 979 l 256 911 l 256 1047 "},"+":{"ha":803,"x_min":0,"x_max":0,"o":"m 461 711 l 461 415 l 757 415 l 757 296 l 461 296 l 461 0 l 342 0 l 342 296 l 46 296 l 46 415 l 342 415 l 342 711 "},",":{"ha":401,"x_min":0,"x_max":0,"o":"m 336 122 l 151 -249 l 75 -217 l 228 165 "},"-":{"ha":461,"x_min":0,"x_max":0,"o":"m 383 497 l 383 393 l 79 393 l 79 497 "},".":{"ha":401,"x_min":0,"x_max":0,"o":"m 201 139 b 282 58 246 139 282 101 b 201 -22 282 14 246 -22 b 121 58 157 -22 121 14 b 201 139 121 101 157 139 "},"/":{"ha":765,"x_min":0,"x_max":0,"o":"m 722 1161 l 143 -175 l 44 -131 l 622 1206 "},":":{"ha":401,"x_min":0,"x_max":0,"o":"m 201 139 b 282 58 246 139 282 101 b 201 -22 282 14 246 -22 b 121 58 157 -22 121 14 b 201 139 121 101 157 139 m 201 669 b 282 589 246 669 282 632 b 201 508 282 544 246 508 b 121 589 157 508 121 544 b 201 669 121 632 157 669 "},";":{"ha":401,"x_min":0,"x_max":0,"o":"m 325 122 l 140 -249 l 64 -217 l 217 165 m 267 669 b 347 589 311 669 347 632 b 267 508 347 544 311 508 b 186 589 222 508 186 544 b 267 669 186 632 222 669 "},"<":{"ha":803,"x_min":0,"x_max":0,"o":"m 757 561 l 224 356 l 757 150 l 757 19 l 46 307 l 46 404 l 757 692 "},"=":{"ha":803,"x_min":0,"x_max":0,"o":"m 757 535 l 757 415 l 46 415 l 46 535 m 757 296 l 757 176 l 46 176 l 46 296 "},">":{"ha":803,"x_min":0,"x_max":0,"o":"m 46 692 l 757 404 l 757 307 l 46 19 l 46 150 l 579 356 l 46 561 "},"?":{"ha":629,"x_min":0,"x_max":0,"o":"m 544 479 b 319 256 550 358 438 256 b 96 478 196 256 96 353 b 271 682 96 610 183 650 b 444 828 357 714 444 736 b 317 951 444 904 390 951 b 197 832 251 951 197 897 b 206 788 197 817 201 803 l 75 788 l 72 833 b 321 1069 64 969 190 1069 b 571 824 461 1069 571 964 b 496 651 571 760 544 693 b 324 574 450 611 382 592 b 222 472 274 558 222 533 b 319 372 222 417 264 372 b 418 479 379 372 419 421 m 319 139 b 400 58 364 139 400 101 b 319 -22 400 14 364 -22 b 239 58 275 -22 239 14 b 319 139 239 101 275 139 "},"@":{"ha":1111,"x_min":0,"x_max":0,"o":"m 699 517 b 557 693 713 629 653 693 b 374 481 444 693 374 582 b 513 322 374 399 426 322 b 699 517 636 322 686 417 m 753 789 l 851 789 l 782 432 b 801 313 772 385 754 313 b 951 579 865 313 951 442 b 576 958 951 813 789 958 b 161 524 343 958 161 764 b 600 89 161 269 363 89 b 858 156 715 89 806 111 l 963 72 b 589 -22 864 19 771 -22 b 50 524 290 -22 50 208 b 581 1069 50 835 285 1069 b 907 949 703 1069 815 1032 b 1063 629 1001 867 1063 758 b 976 335 1063 514 1032 407 b 763 214 910 247 829 211 b 688 300 724 215 696 247 b 499 214 640 253 582 214 b 265 471 376 214 265 328 b 549 801 265 639 376 801 b 733 703 619 801 678 775 "},"A":{"ha":976,"x_min":0,"x_max":0,"o":"m 249 263 l 129 0 l -11 0 l 489 1092 l 989 0 l 849 0 l 729 263 m 489 806 l 303 382 l 675 382 "},"B":{"ha":743,"x_min":0,"x_max":0,"o":"m 219 583 l 253 583 b 478 758 376 583 478 608 b 256 931 478 906 378 931 l 219 931 m 219 117 l 319 117 b 567 301 440 117 567 153 b 300 479 567 449 417 479 l 219 479 m 89 1047 l 217 1047 b 600 760 414 1047 600 996 b 488 561 600 683 558 594 l 488 558 b 697 293 611 536 697 415 b 333 0 697 83 518 0 l 89 0 "},"C":{"ha":918,"x_min":0,"x_max":0,"o":"m 863 847 b 586 950 788 914 685 950 b 172 522 351 950 172 754 b 583 97 172 293 350 97 b 863 206 686 97 785 136 l 863 51 b 588 -22 782 4 679 -22 b 42 518 289 -22 42 215 b 599 1069 42 828 290 1069 b 863 999 690 1069 783 1047 "},"D":{"ha":924,"x_min":0,"x_max":0,"o":"m 89 1047 l 306 1047 b 893 529 626 1047 893 878 b 301 0 893 172 632 0 l 89 0 m 219 119 l 265 119 b 763 524 532 119 763 219 b 265 928 763 829 532 928 l 219 928 "},"E":{"ha":724,"x_min":0,"x_max":0,"o":"m 100 1047 l 663 1047 l 663 928 l 231 928 l 231 635 l 650 635 l 650 515 l 231 515 l 231 119 l 663 119 l 663 0 l 100 0 "},"F":{"ha":658,"x_min":0,"x_max":0,"o":"m 229 928 l 229 633 l 593 633 l 593 514 l 229 514 l 229 0 l 99 0 l 99 1047 l 606 1047 l 606 928 "},"G":{"ha":1083,"x_min":0,"x_max":0,"o":"m 1054 528 l 1054 486 b 558 -22 1054 199 851 -22 b 29 521 265 -22 29 231 b 572 1069 29 822 271 1069 b 999 867 735 1069 896 996 l 907 779 b 578 950 832 882 706 950 b 160 525 343 950 160 760 b 567 97 160 306 340 97 b 910 408 729 97 904 238 l 639 408 l 639 528 "},"H":{"ha":938,"x_min":0,"x_max":0,"o":"m 718 625 l 718 1047 l 849 1047 l 849 0 l 718 0 l 718 503 l 219 503 l 219 0 l 89 0 l 89 1047 l 219 1047 l 219 625 "},"I":{"ha":322,"x_min":0,"x_max":0,"o":"m 226 0 l 96 0 l 96 1047 l 226 1047 "},"J":{"ha":503,"x_min":0,"x_max":0,"o":"m 421 1047 l 421 382 b 138 -22 421 181 382 -22 b -26 24 76 -22 25 -7 l 39 135 b 143 100 68 113 106 100 b 290 382 293 100 290 275 l 290 1047 "},"K":{"ha":833,"x_min":0,"x_max":0,"o":"m 675 1047 l 846 1047 l 375 576 l 854 0 l 678 0 l 283 488 l 231 438 l 231 0 l 100 0 l 100 1047 l 231 1047 l 231 593 "},"L":{"ha":535,"x_min":0,"x_max":0,"o":"m 231 119 l 549 119 l 549 0 l 100 0 l 100 1047 l 231 1047 "},"M":{"ha":1182,"x_min":0,"x_max":0,"o":"m 278 692 l 275 692 l 153 0 l 18 0 l 232 1092 l 592 267 l 951 1092 l 1165 0 l 1031 0 l 908 692 l 906 692 l 592 -22 "},"N":{"ha":1090,"x_min":0,"x_max":0,"o":"m 88 1097 l 874 274 l 874 1047 l 1004 1047 l 1004 -43 l 218 781 l 218 0 l 88 0 "},"O":{"ha":1150,"x_min":0,"x_max":0,"o":"m 575 1069 b 1124 524 875 1069 1124 824 b 575 -22 1124 213 878 -22 b 26 524 272 -22 26 213 b 575 1069 26 824 275 1069 m 575 100 b 993 524 801 100 993 285 b 575 947 993 754 821 947 b 157 524 329 947 157 754 b 575 100 157 285 349 100 "},"P":{"ha":688,"x_min":0,"x_max":0,"o":"m 231 0 l 100 0 l 100 1047 l 250 1047 b 672 744 572 1047 672 936 b 306 439 672 524 504 439 l 231 439 m 231 556 l 272 556 b 550 747 406 556 550 581 b 265 931 550 911 394 931 l 231 931 "},"Q":{"ha":1150,"x_min":0,"x_max":0,"o":"m 964 -22 l 874 71 b 575 -22 788 11 675 -22 b 26 524 272 -22 26 213 b 575 1069 26 824 275 1069 b 1124 524 875 1069 1124 824 b 960 138 1124 375 1063 235 l 1122 -22 m 871 231 b 993 524 951 303 993 424 b 575 947 993 754 821 947 b 157 524 329 947 157 754 b 575 100 157 285 349 100 b 783 160 639 100 719 119 l 543 394 l 706 394 "},"R":{"ha":754,"x_min":0,"x_max":0,"o":"m 751 0 l 593 0 l 285 443 l 231 443 l 231 0 l 100 0 l 100 1047 l 258 1047 b 535 999 351 1047 451 1046 b 672 749 622 947 672 849 b 421 456 672 599 572 474 m 231 551 l 272 551 b 550 743 406 551 550 576 b 265 931 550 907 394 931 l 231 931 "},"S":{"ha":746,"x_min":0,"x_max":0,"o":"m 565 849 b 397 947 526 914 476 947 b 222 799 314 947 222 890 b 368 649 222 717 303 674 l 443 619 b 703 304 592 561 703 479 b 368 -22 703 114 556 -22 b 44 271 199 -22 67 103 l 176 299 b 379 100 175 183 267 100 b 572 304 492 100 572 194 b 392 503 572 417 482 465 l 319 533 b 92 799 200 585 92 653 b 400 1069 92 968 242 1069 b 669 911 517 1069 613 1013 "},"T":{"ha":633,"x_min":0,"x_max":0,"o":"m 382 0 l 251 0 l 251 928 l 3 928 l 3 1047 l 631 1047 l 631 928 l 382 928 "},"U":{"ha":929,"x_min":0,"x_max":0,"o":"m 213 1047 l 213 429 b 465 100 213 258 264 100 b 718 429 667 100 718 258 l 718 1047 l 849 1047 l 849 385 b 465 -22 849 154 706 -22 b 82 385 225 -22 82 154 l 82 1047 "},"V":{"ha":889,"x_min":0,"x_max":0,"o":"m 446 272 l 757 1047 l 900 1047 l 446 -56 l -10 1047 l 133 1047 "},"W":{"ha":1426,"x_min":0,"x_max":0,"o":"m 418 297 l 714 1069 l 1010 297 l 1303 1047 l 1444 1047 l 1010 -42 l 714 726 l 418 -42 l -17 1047 l 125 1047 "},"X":{"ha":797,"x_min":0,"x_max":0,"o":"m 40 1047 l 189 1047 l 403 665 l 631 1047 l 779 1047 l 478 549 l 796 0 l 650 0 l 403 429 l 146 0 l 0 0 l 329 549 "},"Y":{"ha":796,"x_min":0,"x_max":0,"o":"m -8 1047 l 142 1047 l 399 600 l 656 1047 l 806 1047 l 464 456 l 464 0 l 333 0 l 333 456 "},"Z":{"ha":767,"x_min":0,"x_max":0,"o":"m 756 119 l 756 0 l 13 0 l 543 928 l 88 928 l 88 1047 l 756 1047 l 225 119 "},"[":{"ha":432,"x_min":0,"x_max":0,"o":"m 213 -151 l 349 -151 l 349 -268 l 85 -268 l 85 1124 l 349 1124 l 349 1007 l 213 1007 "},"\\":{"ha":765,"x_min":0,"x_max":0,"o":"m 160 1206 l 721 0 l 604 0 l 43 1206 "},"]":{"ha":432,"x_min":0,"x_max":0,"o":"m 219 1007 l 83 1007 l 83 1124 l 347 1124 l 347 -268 l 83 -268 l 83 -151 l 219 -151 "},"^":{"ha":803,"x_min":0,"x_max":0,"o":"m 324 1047 l 479 1047 l 757 428 l 626 428 l 401 931 l 175 428 l 46 428 "},"_":{"ha":694,"x_min":0,"x_max":0,"o":"m 694 -174 l 0 -174 l 0 -104 l 694 -104 "},"‘":{"ha":385,"x_min":0,"x_max":0,"o":"m 83 699 l 268 1069 l 346 1038 l 193 656 "},"a":{"ha":772,"x_min":0,"x_max":0,"o":"m 367 89 b 578 325 503 89 578 197 b 367 558 578 451 501 558 b 161 325 238 558 161 446 b 367 89 161 203 235 89 m 696 0 l 571 0 l 571 101 l 568 101 b 347 -22 518 28 440 -22 b 36 329 149 -22 36 143 b 343 669 36 507 154 669 b 568 542 439 669 517 619 l 571 542 l 571 650 l 696 650 "},"b":{"ha":772,"x_min":0,"x_max":0,"o":"m 400 89 b 611 325 536 89 611 197 b 400 558 611 451 535 558 b 194 325 271 558 194 446 b 400 89 194 203 268 89 m 76 1206 l 201 1206 l 201 542 l 204 542 b 431 669 256 619 333 669 b 736 329 618 669 736 507 b 425 -22 736 143 625 -22 b 204 101 333 -22 254 28 l 201 101 l 201 0 l 76 0 "},"c":{"ha":613,"x_min":0,"x_max":0,"o":"m 564 465 b 378 553 514 522 453 553 b 161 325 256 553 161 444 b 386 94 161 192 254 94 b 564 181 458 94 517 128 l 564 21 b 385 -22 507 -10 450 -22 b 36 319 193 -22 36 125 b 392 669 36 521 192 669 b 564 626 450 669 514 656 "},"d":{"ha":772,"x_min":0,"x_max":0,"o":"m 367 89 b 578 325 503 89 578 197 b 367 558 578 451 501 558 b 161 325 238 558 161 446 b 367 89 161 203 235 89 m 571 101 l 568 101 b 347 -22 518 28 439 -22 b 36 329 147 -22 36 143 b 342 669 36 507 154 669 b 568 542 439 669 517 619 l 571 542 l 571 1206 l 696 1206 l 696 0 l 571 0 "},"e":{"ha":678,"x_min":0,"x_max":0,"o":"m 161 304 b 357 89 163 193 238 89 b 551 215 453 89 504 138 l 657 156 b 356 -22 596 43 482 -22 b 36 319 157 -22 36 128 b 353 669 36 519 143 669 b 657 324 560 669 657 517 l 657 304 m 532 399 b 353 561 517 496 453 561 b 168 399 256 561 183 492 "},"f":{"ha":382,"x_min":0,"x_max":0,"o":"m 408 1079 b 325 1106 383 1090 351 1106 b 236 929 236 1106 236 993 l 236 650 l 408 650 l 408 533 l 236 533 l 236 0 l 111 0 l 111 533 l 54 533 l 54 650 l 111 650 l 111 967 b 321 1222 111 1108 160 1222 b 408 1206 351 1222 381 1217 "},"g":{"ha":771,"x_min":0,"x_max":0,"o":"m 365 89 b 576 325 501 89 576 197 b 365 558 576 451 500 558 b 160 325 236 558 160 446 b 365 89 160 203 233 89 m 694 13 b 378 -372 694 -211 631 -372 b 64 -78 197 -372 67 -261 l 189 -78 b 383 -261 189 -194 269 -261 b 569 -22 538 -261 569 -156 l 569 101 l 567 101 b 346 -22 517 28 438 -22 b 35 329 146 -22 35 143 b 340 669 35 507 153 669 b 567 539 438 669 515 619 l 569 539 l 569 650 l 694 650 "},"h":{"ha":726,"x_min":0,"x_max":0,"o":"m 211 1206 l 211 563 l 214 563 b 410 669 253 632 331 669 b 640 388 593 669 640 546 l 640 0 l 515 0 l 515 372 b 372 558 515 483 500 558 b 211 299 211 558 211 417 l 211 0 l 86 0 l 86 1206 "},"i":{"ha":353,"x_min":0,"x_max":0,"o":"m 239 0 l 114 0 l 114 650 l 239 650 m 176 1035 b 263 947 224 1035 263 996 b 176 863 263 900 224 863 b 90 947 129 863 90 900 b 176 1035 90 996 129 1035 "},"j":{"ha":353,"x_min":0,"x_max":0,"o":"m 239 -372 l 114 -372 l 114 650 l 239 650 m 176 1035 b 263 947 224 1035 263 996 b 176 863 263 900 224 863 b 90 947 129 863 90 900 b 176 1035 90 996 129 1035 "},"k":{"ha":642,"x_min":0,"x_max":0,"o":"m 219 406 l 464 650 l 629 650 l 351 381 l 657 0 l 494 0 l 263 296 l 219 253 l 219 0 l 94 0 l 94 1206 l 219 1206 "},"l":{"ha":308,"x_min":0,"x_max":0,"o":"m 217 0 l 92 0 l 92 1206 l 217 1206 "},"m":{"ha":1065,"x_min":0,"x_max":0,"o":"m 207 568 l 210 568 b 382 669 246 625 311 669 b 569 554 467 669 528 626 b 769 669 610 624 688 669 b 985 389 940 669 985 536 l 985 0 l 860 0 l 860 368 b 739 558 860 451 849 558 b 596 319 606 558 596 419 l 596 0 l 471 0 l 471 344 b 351 558 471 429 467 558 b 207 319 218 558 207 421 l 207 0 l 82 0 l 82 650 l 207 650 "},"n":{"ha":726,"x_min":0,"x_max":0,"o":"m 211 563 l 214 563 b 410 669 253 632 331 669 b 640 388 593 669 640 546 l 640 0 l 515 0 l 515 372 b 372 558 515 483 500 558 b 211 299 211 558 211 417 l 211 0 l 86 0 l 86 650 l 211 650 "},"o":{"ha":750,"x_min":0,"x_max":0,"o":"m 375 669 b 722 324 569 669 722 519 b 375 -22 722 128 569 -22 b 28 324 181 -22 28 128 b 375 669 28 519 181 669 m 375 550 b 153 324 251 550 153 447 b 375 97 153 201 251 97 b 597 324 499 97 597 201 b 375 550 597 447 499 550 "},"p":{"ha":772,"x_min":0,"x_max":0,"o":"m 400 89 b 611 325 536 89 611 197 b 400 558 611 451 535 558 b 194 325 271 558 194 446 b 400 89 194 203 268 89 m 201 542 l 204 542 b 431 669 256 619 333 669 b 736 329 618 669 736 507 b 425 -22 736 143 625 -22 b 204 101 333 -22 254 28 l 201 101 l 201 -372 l 76 -372 l 76 650 l 201 650 "},"q":{"ha":772,"x_min":0,"x_max":0,"o":"m 367 89 b 578 325 503 89 578 197 b 367 558 578 451 501 558 b 161 325 238 558 161 446 b 367 89 161 203 235 89 m 696 -372 l 571 -372 l 571 101 l 568 101 b 347 -22 518 28 439 -22 b 36 329 147 -22 36 143 b 342 669 36 507 154 669 b 568 542 439 669 517 619 l 571 542 l 571 650 l 696 650 "},"r":{"ha":488,"x_min":0,"x_max":0,"o":"m 219 544 l 224 544 b 401 669 254 621 318 669 b 504 638 438 669 474 657 l 447 524 b 371 550 425 543 400 550 b 219 319 236 550 219 425 l 219 0 l 94 0 l 94 650 l 219 650 "},"s":{"ha":533,"x_min":0,"x_max":0,"o":"m 347 501 b 264 558 332 533 300 558 b 196 494 229 558 196 531 b 347 378 196 438 271 413 b 497 193 424 343 497 296 b 274 -22 497 69 394 -22 b 49 124 179 -22 83 32 l 156 172 b 274 89 182 124 214 89 b 372 181 326 89 372 125 b 326 251 372 215 356 232 l 204 317 b 79 481 132 356 79 392 b 271 669 79 586 165 669 b 449 556 350 669 414 626 "},"t":{"ha":333,"x_min":0,"x_max":0,"o":"m 229 0 l 104 0 l 104 533 l 36 533 l 36 650 l 104 650 l 104 899 l 229 899 l 229 650 l 351 650 l 351 533 l 229 533 "},"u":{"ha":711,"x_min":0,"x_max":0,"o":"m 206 650 l 206 290 b 356 94 206 186 232 94 b 506 290 479 94 506 186 l 506 650 l 631 650 l 631 276 b 356 -22 631 99 547 -22 b 81 276 164 -22 81 99 l 81 650 "},"v":{"ha":618,"x_min":0,"x_max":0,"o":"m 308 244 l 496 650 l 636 650 l 308 -22 l -18 650 l 122 650 "},"w":{"ha":997,"x_min":0,"x_max":0,"o":"m 308 236 l 500 686 l 690 236 l 879 650 l 1021 650 l 690 -22 l 500 413 l 308 -22 l -22 650 l 119 650 "},"x":{"ha":679,"x_min":0,"x_max":0,"o":"m 38 650 l 185 650 l 339 440 l 507 650 l 658 650 l 419 353 l 699 0 l 553 0 l 339 264 l 132 0 l -19 0 l 271 353 "},"y":{"ha":672,"x_min":0,"x_max":0,"o":"m -18 650 l 128 650 l 347 238 l 551 650 l 692 650 l 165 -372 l 24 -372 l 279 111 "},"z":{"ha":688,"x_min":0,"x_max":0,"o":"m 668 117 l 668 0 l 3 0 l 443 533 l 78 533 l 78 650 l 686 650 l 246 117 "},"{":{"ha":464,"x_min":0,"x_max":0,"o":"m 67 478 b 171 688 136 508 171 583 l 171 940 b 289 1124 171 1051 247 1124 l 397 1124 l 397 1007 l 342 1007 b 299 921 299 1007 299 967 l 299 665 b 193 426 299 506 211 439 b 299 189 211 415 299 349 l 299 -67 b 342 -153 299 -112 299 -153 l 397 -153 l 397 -269 l 289 -269 b 171 -86 247 -269 171 -197 l 171 167 b 67 376 171 271 136 346 "},"|":{"ha":792,"x_min":0,"x_max":0,"o":"m 456 -297 l 336 -297 l 336 1092 l 456 1092 "},"}":{"ha":464,"x_min":0,"x_max":0,"o":"m 397 376 b 293 167 328 346 293 271 l 293 -86 b 175 -269 293 -197 217 -269 l 67 -269 l 67 -153 l 122 -153 b 165 -67 165 -153 165 -112 l 165 189 b 271 426 165 349 253 415 b 165 665 253 439 165 506 l 165 921 b 122 1007 165 967 165 1007 l 67 1007 l 67 1124 l 175 1124 b 293 940 217 1124 293 1051 l 293 688 b 397 478 293 583 328 508 "},"~":{"ha":803,"x_min":0,"x_max":0,"o":"m 757 394 b 546 225 715 318 646 225 b 386 296 494 225 438 261 b 261 367 335 331 290 367 b 133 253 214 367 178 325 l 46 315 b 258 486 96 388 158 486 b 428 415 326 486 382 450 b 544 344 474 381 511 344 b 664 464 597 344 622 394 "},"¡":{"ha":446,"x_min":0,"x_max":0,"o":"m 224 706 b 304 625 268 706 304 668 b 224 544 304 581 268 544 b 143 625 179 544 143 581 b 224 706 143 668 179 706 m 286 449 l 286 -358 l 161 -358 l 161 449 "},"¢":{"ha":803,"x_min":0,"x_max":0,"o":"m 494 872 b 664 829 553 869 613 858 l 664 669 l 661 669 b 494 757 622 721 561 756 l 494 301 b 664 388 564 311 615 336 l 664 225 b 518 186 617 203 569 190 l 494 185 l 494 67 l 428 67 l 428 190 b 139 524 260 217 139 353 b 428 869 139 696 256 843 l 428 978 l 494 978 m 428 749 b 261 529 329 736 261 619 b 428 306 261 429 325 326 "},"£":{"ha":803,"x_min":0,"x_max":0,"o":"m 15 33 b 229 190 65 121 121 186 b 218 418 253 269 261 344 l 39 418 l 39 499 l 178 499 b 97 749 139 572 97 667 b 440 1069 97 929 267 1069 b 774 744 636 1069 764 938 l 649 697 l 649 736 b 446 947 649 850 564 947 b 222 738 331 947 222 839 b 321 499 222 642 283 568 l 526 499 l 526 418 l 354 418 b 354 179 381 332 379 265 l 457 143 b 588 103 496 129 544 103 b 703 206 644 103 678 161 l 807 142 b 590 -22 768 50 696 -22 b 408 24 531 -22 468 0 b 247 68 350 47 294 68 b 125 -22 183 68 147 33 "},"⁄":{"ha":229,"x_min":0,"x_max":0,"o":"m 456 1033 l -156 -22 l -226 17 l 385 1069 "},"¥":{"ha":803,"x_min":0,"x_max":0,"o":"m 467 0 l 336 0 l 336 361 l 8 361 l 8 442 l 336 442 l 336 456 l 261 586 l 8 586 l 8 667 l 214 667 l -6 1047 l 144 1047 l 401 600 l 658 1047 l 808 1047 l 589 667 l 794 667 l 794 586 l 543 586 l 467 456 l 467 442 l 794 442 l 794 361 l 467 361 "},"ƒ":{"ha":803,"x_min":0,"x_max":0,"o":"m 672 701 l 660 607 l 478 607 l 401 186 b 53 -207 361 -39 321 -207 l 19 -207 l 40 -87 l 67 -87 b 271 179 228 -87 247 40 l 344 607 l 254 607 l 267 701 l 364 701 l 393 874 b 667 1161 421 1038 479 1161 b 750 1151 696 1161 724 1158 l 728 1035 b 671 1044 710 1042 690 1044 b 524 858 558 1044 542 951 l 493 701 "},"§":{"ha":803,"x_min":0,"x_max":0,"o":"m 540 344 b 624 490 589 375 624 433 b 518 613 624 557 571 586 l 263 742 b 179 594 213 710 179 653 b 297 465 179 524 242 493 m 235 363 b 56 581 135 413 56 454 b 189 806 56 682 111 747 b 128 960 150 850 128 900 b 393 1206 128 1101 257 1206 b 669 972 535 1206 660 1121 l 549 972 b 393 1096 544 1053 467 1096 b 253 957 315 1096 253 1035 b 371 817 253 883 311 846 l 556 724 b 747 517 642 681 747 626 b 624 282 747 425 697 336 b 697 113 671 238 697 178 b 401 -156 697 -53 557 -156 b 88 143 222 -156 88 -43 l 88 164 l 211 164 b 400 -42 208 51 283 -42 b 572 115 488 -42 572 22 b 431 267 572 197 494 235 "},"¤":{"ha":803,"x_min":0,"x_max":0,"o":"m 754 675 l 697 614 b 756 417 733 557 756 496 b 697 219 756 338 733 276 l 754 158 l 671 75 l 607 136 b 401 69 554 96 490 69 b 196 136 313 69 249 96 l 132 75 l 49 158 l 106 219 b 47 417 69 276 47 338 b 106 614 47 496 69 557 l 49 675 l 132 758 l 196 697 b 401 764 249 738 313 764 b 607 697 490 764 554 738 l 671 758 m 401 181 b 644 417 536 181 643 288 b 401 653 646 554 540 653 b 158 417 263 653 156 554 b 401 181 161 288 267 181 "},"'":{"ha":385,"x_min":0,"x_max":0,"o":"m 261 1047 l 236 592 l 150 592 l 125 1047 "},"“":{"ha":610,"x_min":0,"x_max":0,"o":"m 314 699 l 499 1069 l 576 1038 l 424 656 m 83 699 l 268 1069 l 346 1038 l 193 656 "},"«":{"ha":726,"x_min":0,"x_max":0,"o":"m 639 179 l 561 122 l 308 444 l 561 778 l 639 721 l 432 444 m 372 179 l 294 122 l 42 444 l 294 778 l 372 721 l 165 444 "},"‹":{"ha":467,"x_min":0,"x_max":0,"o":"m 361 179 l 283 122 l 31 444 l 283 778 l 361 721 l 154 444 "},"›":{"ha":467,"x_min":0,"x_max":0,"o":"m 313 444 l 106 721 l 183 778 l 436 444 l 183 122 l 106 179 "},"ﬁ":{"ha":711,"x_min":0,"x_max":0,"o":"m 597 0 l 472 0 l 472 650 l 597 650 m 535 1035 b 621 947 582 1035 621 996 b 535 863 621 900 582 863 b 449 947 488 863 449 900 b 535 1035 449 996 488 1035 m 408 1079 b 325 1106 383 1090 351 1106 b 236 929 236 1106 236 993 l 236 650 l 408 650 l 408 533 l 236 533 l 236 0 l 111 0 l 111 533 l 54 533 l 54 650 l 111 650 l 111 967 b 321 1222 111 1108 160 1222 b 408 1206 351 1222 381 1217 "},"ﬂ":{"ha":690,"x_min":0,"x_max":0,"o":"m 599 0 l 474 0 l 474 1206 l 599 1206 m 408 1079 b 325 1106 383 1090 351 1106 b 236 929 236 1106 236 993 l 236 650 l 408 650 l 408 533 l 236 533 l 236 0 l 111 0 l 111 533 l 54 533 l 54 650 l 111 650 l 111 967 b 321 1222 111 1108 160 1222 b 408 1206 351 1222 381 1217 "},"–":{"ha":694,"x_min":0,"x_max":0,"o":"m 694 497 l 694 393 l 0 393 l 0 497 "},"†":{"ha":803,"x_min":0,"x_max":0,"o":"m 464 1206 l 464 824 l 715 824 l 715 704 l 464 704 l 464 -122 l 339 -122 l 339 704 l 88 704 l 88 824 l 339 824 l 339 1206 "},"‡":{"ha":803,"x_min":0,"x_max":0,"o":"m 464 1206 l 464 874 l 715 874 l 715 754 l 464 754 l 464 585 l 715 585 l 715 465 l 464 465 l 464 -121 l 339 -121 l 339 465 l 88 465 l 88 585 l 339 585 l 339 754 l 88 754 l 88 874 l 339 874 l 339 1206 "},"·":{"ha":401,"x_min":0,"x_max":0,"o":"m 201 436 b 282 356 246 436 282 399 b 201 275 282 311 246 275 b 121 356 157 275 121 311 b 201 436 121 399 157 436 "},"¶":{"ha":803,"x_min":0,"x_max":0,"o":"m 747 931 l 663 931 l 663 -212 l 546 -212 l 546 931 l 460 931 l 460 -212 l 343 -212 l 343 393 b 57 690 186 393 71 503 b 356 1047 44 858 172 1047 l 747 1047 "},"•":{"ha":803,"x_min":0,"x_max":0,"o":"m 401 263 b 140 524 258 263 140 378 b 401 786 139 669 256 786 b 664 524 547 786 664 669 b 401 263 664 378 544 263 "},"‚":{"ha":385,"x_min":0,"x_max":0,"o":"m 336 122 l 151 -249 l 75 -217 l 228 165 "},"„":{"ha":610,"x_min":0,"x_max":0,"o":"m 331 122 l 146 -249 l 69 -217 l 222 165 m 561 122 l 376 -249 l 300 -217 l 453 165 "},"”":{"ha":610,"x_min":0,"x_max":0,"o":"m 296 1026 l 111 656 l 33 688 l 186 1069 m 526 1026 l 342 656 l 264 688 l 417 1069 "},"»":{"ha":726,"x_min":0,"x_max":0,"o":"m 294 444 l 88 721 l 165 778 l 418 444 l 165 122 l 88 179 m 561 444 l 354 721 l 432 778 l 685 444 l 432 122 l 354 179 "},"…":{"ha":1389,"x_min":0,"x_max":0,"o":"m 694 139 b 775 58 739 139 775 101 b 694 -22 775 14 739 -22 b 614 58 650 -22 614 14 b 694 139 614 101 650 139 m 1158 139 b 1239 58 1203 139 1239 101 b 1158 -22 1239 14 1203 -22 b 1078 58 1114 -22 1078 14 b 1158 139 1078 101 1114 139 m 231 139 b 311 58 275 139 311 101 b 231 -22 311 14 275 -22 b 150 58 186 -22 150 14 b 231 139 150 101 186 139 "},"‰":{"ha":1542,"x_min":0,"x_max":0,"o":"m 275 986 b 114 831 189 986 114 917 b 275 676 114 746 189 676 b 436 831 361 676 436 746 b 275 986 436 917 361 986 m 836 1033 l 225 -22 l 161 13 l 774 1069 m 724 371 b 563 215 638 371 563 301 b 724 61 563 131 638 61 b 885 215 810 61 885 131 b 724 371 885 301 810 371 m 275 1069 b 519 831 407 1069 519 964 b 275 593 519 699 406 593 b 31 831 144 593 31 699 b 275 1069 31 964 143 1069 m 724 454 b 968 215 856 454 968 349 b 724 -22 968 83 854 -22 b 479 215 593 -22 479 83 b 724 454 479 349 592 454 m 1268 454 b 1513 215 1400 454 1513 349 b 1268 -22 1513 83 1399 -22 b 1024 215 1138 -22 1024 83 b 1268 454 1024 349 1136 454 m 1268 371 b 1107 215 1182 371 1107 301 b 1268 61 1107 131 1182 61 b 1429 215 1354 61 1429 131 b 1268 371 1429 301 1354 371 "},"¿":{"ha":629,"x_min":0,"x_max":0,"o":"m 85 218 b 310 442 79 339 192 442 b 533 219 433 442 533 344 b 358 15 533 88 446 47 b 185 -131 272 -17 185 -39 b 313 -254 185 -207 239 -254 b 432 -135 378 -254 432 -200 b 424 -90 432 -119 428 -106 l 554 -90 l 557 -136 b 308 -372 565 -272 439 -372 b 58 -126 168 -372 58 -267 b 133 46 58 -62 85 4 b 306 124 179 86 247 106 b 407 225 356 139 407 164 b 310 325 407 281 365 325 b 211 218 250 325 210 276 m 310 706 b 390 625 354 706 390 668 b 310 544 390 581 354 544 b 229 625 265 544 229 581 b 310 706 229 668 265 706 "},"`":{"ha":500,"x_min":0,"x_max":0,"o":"m 221 1019 l 394 789 l 333 751 l 106 958 "},"´":{"ha":500,"x_min":0,"x_max":0,"o":"m 394 958 l 167 751 l 106 789 l 279 1019 "},"ˆ":{"ha":653,"x_min":0,"x_max":0,"o":"m 325 1019 l 549 818 l 467 754 l 325 888 l 185 754 l 104 818 "},"˜":{"ha":708,"x_min":0,"x_max":0,"o":"m 89 851 l 93 858 b 243 964 131 913 169 964 b 367 928 290 964 331 947 b 467 890 403 908 436 890 b 556 957 507 890 536 925 l 621 903 b 457 789 589 838 533 789 b 342 825 418 789 379 807 b 233 860 306 842 269 860 b 154 796 199 860 168 825 "},"¯":{"ha":694,"x_min":0,"x_max":0,"o":"m 599 964 l 599 869 l 97 869 l 97 964 "},"˘":{"ha":681,"x_min":0,"x_max":0,"o":"m 199 964 b 340 860 226 899 267 860 b 483 964 415 860 454 899 l 582 964 b 340 768 561 849 457 768 b 99 964 225 768 121 849 "},"˙":{"ha":500,"x_min":0,"x_max":0,"o":"m 251 964 b 335 881 297 964 335 926 b 251 796 335 833 297 796 b 167 881 204 796 167 833 b 251 964 167 926 204 964 "},"¨":{"ha":653,"x_min":0,"x_max":0,"o":"m 181 964 b 264 881 226 964 264 926 b 181 796 264 833 226 796 b 96 881 133 796 96 833 b 181 964 96 926 133 964 m 474 964 b 557 881 519 964 557 926 b 474 796 557 833 519 796 b 389 881 426 796 389 833 b 474 964 389 926 426 964 "},"˚":{"ha":500,"x_min":0,"x_max":0,"o":"m 250 1019 b 376 893 321 1019 376 963 b 250 768 376 824 321 768 b 125 893 181 768 125 824 b 250 1019 125 963 181 1019 m 250 831 b 314 893 285 831 314 858 b 250 957 314 928 285 957 b 188 893 217 957 188 928 b 250 831 188 858 217 831 "},"¸":{"ha":458,"x_min":0,"x_max":0,"o":"m 193 -251 l 119 -214 l 240 -24 l 339 -64 "},"˝":{"ha":653,"x_min":0,"x_max":0,"o":"m 600 946 l 372 739 l 311 776 l 485 1007 m 342 958 l 114 751 l 53 789 l 226 1019 "},"˛":{"ha":472,"x_min":0,"x_max":0,"o":"m 293 -22 l 293 -25 b 208 -143 256 -50 208 -93 b 286 -208 208 -190 244 -208 b 356 -190 311 -208 335 -204 l 346 -271 b 257 -294 319 -287 288 -294 b 117 -181 189 -294 117 -256 b 229 -22 117 -110 174 -56 "},"ˇ":{"ha":656,"x_min":0,"x_max":0,"o":"m 186 1019 l 326 886 l 468 1019 l 550 956 l 326 754 l 106 956 "},"—":{"ha":1389,"x_min":0,"x_max":0,"o":"m 1208 497 l 1208 393 l 181 393 l 181 497 "},"Æ":{"ha":1385,"x_min":0,"x_max":0,"o":"m 263 263 l 143 0 l 0 0 l 503 1047 l 961 1047 l 1014 928 l 585 928 l 711 635 l 1129 635 l 1185 515 l 765 515 l 933 119 l 1365 119 l 1418 0 l 854 0 l 739 263 m 510 788 l 318 382 l 690 382 "},"ª":{"ha":464,"x_min":0,"x_max":0,"o":"m 232 721 b 369 863 321 721 369 786 b 232 1003 369 939 319 1003 b 99 863 149 1003 99 935 b 232 721 99 789 146 721 m 447 668 l 365 668 l 365 728 l 363 728 b 219 654 331 685 281 654 b 17 865 90 654 17 753 b 217 1069 17 972 94 1069 b 364 993 279 1069 329 1039 l 365 993 l 365 1057 l 447 1057 "},"Ł":{"ha":535,"x_min":0,"x_max":0,"o":"m 231 647 l 394 763 l 394 638 l 231 528 l 231 119 l 549 119 l 549 0 l 100 0 l 100 447 l -12 367 l -12 493 l 100 568 l 100 1047 l 231 1047 "},"Ø":{"ha":1150,"x_min":0,"x_max":0,"o":"m 321 188 b 575 100 390 133 479 100 b 993 524 801 100 993 285 b 915 774 993 617 965 704 m 844 850 b 575 947 775 911 682 947 b 157 524 329 947 157 754 b 247 263 157 424 190 333 m 154 171 b 26 524 74 265 26 388 b 575 1069 26 824 275 1069 b 932 936 711 1069 838 1018 l 1065 1068 l 1140 994 l 1004 861 b 1124 524 1079 767 1124 650 b 575 -22 1124 213 878 -22 b 229 97 444 -22 324 22 l 85 -44 l 10 29 "},"Œ":{"ha":1588,"x_min":0,"x_max":0,"o":"m 997 175 l 994 175 b 575 -22 900 47 743 -24 b 26 524 272 -22 26 213 b 575 1069 26 824 275 1069 b 994 864 735 1064 901 996 l 997 864 l 997 1047 l 1546 1047 l 1546 928 l 1115 928 l 1115 635 l 1533 635 l 1533 515 l 1115 515 l 1115 119 l 1546 119 l 1546 0 l 997 0 m 575 100 b 993 524 801 100 993 285 b 575 947 993 754 821 947 b 157 524 329 947 157 754 b 575 100 157 285 349 100 "},"º":{"ha":450,"x_min":0,"x_max":0,"o":"m 225 1069 b 451 861 351 1069 451 979 b 225 654 451 744 351 654 b 0 861 99 654 0 744 b 225 1069 0 979 99 1069 m 225 997 b 82 861 144 997 82 936 b 225 726 82 789 144 726 b 369 861 306 726 369 789 b 225 997 369 936 306 997 "},"æ":{"ha":1121,"x_min":0,"x_max":0,"o":"m 978 399 b 799 561 963 496 899 561 b 614 399 701 561 629 492 m 307 303 b 153 193 242 303 153 269 b 311 89 153 115 247 89 b 472 197 376 89 472 118 b 307 303 472 276 369 303 m 604 304 b 800 89 606 193 681 89 b 994 215 896 89 947 138 l 1100 156 b 799 -22 1039 43 925 -22 b 549 99 699 -22 611 26 b 300 -22 494 17 394 -22 b 36 190 172 -22 36 44 b 282 408 36 332 150 408 b 479 349 351 408 425 393 l 479 393 b 308 561 479 507 422 561 b 131 540 249 561 188 558 l 131 651 b 326 669 194 664 261 669 b 549 563 407 669 507 638 b 796 669 606 633 696 669 b 1100 324 1003 669 1100 517 l 1100 304 "},"ı":{"ha":353,"x_min":0,"x_max":0,"o":"m 239 0 l 114 0 l 114 650 l 239 650 "},"ł":{"ha":354,"x_min":0,"x_max":0,"o":"m 114 572 l 1 496 l 1 608 l 114 685 l 114 1206 l 239 1206 l 239 769 l 353 847 l 353 733 l 239 657 l 239 0 l 114 0 "},"ø":{"ha":750,"x_min":0,"x_max":0,"o":"m 503 508 b 375 550 468 533 424 550 b 153 324 251 550 153 447 b 193 196 153 276 168 232 m 256 133 b 375 97 290 110 331 97 b 597 324 499 97 597 201 b 563 443 597 368 585 410 m 104 106 b 28 324 57 163 28 239 b 375 669 28 519 181 669 b 590 597 457 669 531 643 l 675 682 l 739 622 l 653 535 b 722 324 696 478 722 404 b 375 -22 722 128 569 -22 b 168 44 296 -22 224 3 l 72 -53 l 11 13 "},"œ":{"ha":1246,"x_min":0,"x_max":0,"o":"m 1099 399 b 919 561 1083 496 1019 561 b 735 399 822 561 750 492 m 375 550 b 153 324 251 550 153 447 b 375 97 153 201 251 97 b 597 324 499 97 597 201 b 375 550 597 447 499 550 m 729 304 b 925 89 731 193 806 89 b 1119 215 1021 89 1072 138 l 1225 156 b 924 -22 1164 43 1050 -22 b 653 121 815 -24 707 29 b 375 -22 590 28 482 -24 b 28 324 181 -22 28 128 b 375 669 28 519 181 669 b 653 524 479 665 592 614 b 921 669 713 618 800 665 b 1225 324 1128 669 1225 517 l 1225 304 "},"ß":{"ha":806,"x_min":0,"x_max":0,"o":"m 392 94 b 663 358 536 94 663 214 b 392 615 663 519 543 606 l 392 738 b 579 929 499 736 579 822 b 399 1106 579 1032 497 1106 b 219 776 215 1106 219 910 l 219 0 l 94 0 l 94 536 l 39 536 l 39 653 l 94 653 l 94 858 b 403 1222 94 1069 172 1222 b 704 922 574 1222 704 1097 b 571 690 704 821 658 742 b 788 358 708 646 788 499 b 392 -22 788 140 606 -32 "},"¹":{"ha":481,"x_min":0,"x_max":0,"o":"m 90 967 l 138 1047 l 299 1047 l 299 419 l 210 419 l 210 967 "},"¬":{"ha":803,"x_min":0,"x_max":0,"o":"m 638 415 l 46 415 l 46 535 l 757 535 l 757 160 l 638 160 "},"µ":{"ha":711,"x_min":0,"x_max":0,"o":"m 206 650 l 206 290 b 356 94 206 186 232 94 b 506 290 479 94 506 186 l 506 650 l 631 650 l 631 276 b 356 -22 631 99 547 -22 b 206 39 300 -22 242 8 l 206 -372 l 81 -372 l 81 650 "},"™":{"ha":1306,"x_min":0,"x_max":0,"o":"m 1258 463 l 1169 463 l 1169 958 l 1167 958 l 967 463 l 913 463 l 718 958 l 715 958 l 715 463 l 626 463 l 626 1047 l 772 1047 l 940 635 l 1114 1047 l 1258 1047 m 519 958 l 328 958 l 328 463 l 239 463 l 239 958 l 47 958 l 47 1047 l 519 1047 "},"Ð":{"ha":924,"x_min":0,"x_max":0,"o":"m 89 1047 l 306 1047 b 893 529 626 1047 893 878 b 301 0 893 172 632 0 l 89 0 l 89 503 l 0 503 l 0 614 l 89 614 m 219 614 l 406 614 l 406 503 l 219 503 l 219 119 l 265 119 b 763 524 532 119 763 219 b 265 928 763 829 532 928 l 219 928 "},"½":{"ha":1204,"x_min":0,"x_max":0,"o":"m 175 967 l 56 967 l 103 1047 l 264 1047 l 264 419 l 175 419 m 1149 81 l 1149 0 l 708 0 l 1007 338 b 1060 450 1035 369 1060 408 b 933 561 1060 515 990 561 b 811 456 865 561 815 518 l 718 456 b 933 642 731 567 810 642 b 1149 453 1049 642 1149 563 b 1103 324 1149 407 1132 357 l 888 81 m 875 1033 l 264 -22 l 193 17 l 804 1069 "},"±":{"ha":803,"x_min":0,"x_max":0,"o":"m 46 119 l 757 119 l 757 0 l 46 0 m 461 781 l 461 540 l 757 540 l 757 421 l 461 421 l 461 181 l 342 181 l 342 421 l 46 421 l 46 540 l 342 540 l 342 781 "},"Þ":{"ha":688,"x_min":0,"x_max":0,"o":"m 231 0 l 100 0 l 100 1047 l 231 1047 l 231 853 l 250 853 b 672 550 572 853 672 742 b 306 244 672 329 504 244 l 231 244 m 231 361 l 272 361 b 550 553 406 361 550 386 b 265 736 550 717 394 736 l 231 736 "},"¼":{"ha":1204,"x_min":0,"x_max":0,"o":"m 1149 172 l 1149 92 l 1081 92 l 1081 0 l 992 0 l 992 92 l 654 92 l 1081 657 l 1081 172 m 992 400 l 988 400 l 817 172 l 992 172 m 56 967 l 103 1047 l 264 1047 l 264 419 l 175 419 l 175 967 m 947 1033 l 336 -22 l 265 17 l 876 1069 "},"÷":{"ha":803,"x_min":0,"x_max":0,"o":"m 46 415 l 757 415 l 757 296 l 46 296 m 401 172 b 488 85 449 172 488 133 b 401 0 488 38 449 0 b 315 85 354 0 315 38 b 401 172 315 133 354 172 m 401 711 b 488 624 449 711 488 672 b 401 539 488 576 449 539 b 315 624 354 539 315 576 b 401 711 315 672 354 711 "},"¦":{"ha":792,"x_min":0,"x_max":0,"o":"m 456 -124 l 336 -124 l 336 224 l 456 224 m 456 571 l 336 571 l 336 918 l 456 918 "},"°":{"ha":556,"x_min":0,"x_max":0,"o":"m 486 861 b 278 653 486 746 392 653 b 69 861 163 653 69 746 b 278 1069 68 975 163 1069 b 486 861 392 1069 486 975 m 276 1000 b 139 861 199 1000 138 939 b 278 722 139 782 199 722 b 417 861 356 722 417 782 b 276 1000 417 939 356 1000 "},"þ":{"ha":772,"x_min":0,"x_max":0,"o":"m 201 542 l 204 542 b 431 669 256 619 333 669 b 736 329 618 669 736 507 b 425 -22 736 143 625 -22 b 204 101 333 -22 254 28 l 201 101 l 201 -372 l 76 -372 l 76 1206 l 201 1206 m 400 89 b 611 325 536 89 611 197 b 400 558 611 451 535 558 b 194 325 271 558 194 446 b 400 89 194 203 268 89 "},"¾":{"ha":1204,"x_min":0,"x_max":0,"o":"m 1149 172 l 1149 92 l 1081 92 l 1081 0 l 992 0 l 992 92 l 654 92 l 1081 657 l 1081 172 m 992 400 l 988 400 l 817 172 l 992 172 m 256 800 b 386 893 333 800 386 831 b 271 989 386 957 328 989 b 167 911 217 989 167 965 l 74 911 b 274 1069 90 1014 161 1069 b 475 900 382 1069 475 1006 b 383 758 475 839 442 789 b 485 603 450 729 485 671 b 263 414 485 485 385 414 b 56 583 157 414 61 479 l 144 583 b 269 494 154 521 200 494 b 396 606 336 494 396 538 b 256 719 396 678 333 722 m 1025 1033 l 414 -22 l 343 17 l 954 1069 "},"²":{"ha":481,"x_min":0,"x_max":0,"o":"m 461 500 l 461 419 l 21 419 l 319 757 b 372 869 347 789 372 828 b 246 981 372 935 303 981 b 124 875 178 981 128 938 l 31 875 b 246 1061 43 986 122 1061 b 461 872 361 1061 461 982 b 415 743 461 826 444 776 l 200 500 "},"®":{"ha":1111,"x_min":0,"x_max":0,"o":"m 556 -22 b 8 524 250 -22 8 219 b 556 1069 8 828 250 1069 b 1103 524 861 1069 1103 828 b 556 -22 1103 219 861 -22 m 556 981 b 97 524 306 981 97 782 b 556 67 97 267 306 67 b 1014 524 806 67 1014 267 b 556 981 1014 782 806 981 m 806 213 l 704 213 l 547 496 l 433 496 l 433 213 l 344 213 l 344 826 l 603 826 b 814 664 714 826 814 793 b 650 496 814 543 732 499 m 433 738 l 433 585 l 528 585 b 725 654 611 585 725 571 b 586 738 725 732 660 738 "},"−":{"ha":803,"x_min":0,"x_max":0,"o":"m 46 415 l 757 415 l 757 296 l 46 296 "},"ð":{"ha":750,"x_min":0,"x_max":0,"o":"m 375 550 b 153 324 251 550 153 447 b 375 97 153 201 251 97 b 597 324 499 97 597 201 b 375 550 597 447 499 550 m 265 1001 b 111 1147 215 1057 164 1106 l 190 1218 b 369 1061 249 1178 308 1125 l 571 1176 l 629 1100 l 433 988 b 722 350 590 803 722 560 b 375 -22 722 114 569 -22 b 28 324 181 -22 28 128 b 375 669 28 519 181 669 b 522 622 451 669 492 640 b 329 928 467 736 401 838 l 125 811 l 64 886 "},"×":{"ha":803,"x_min":0,"x_max":0,"o":"m 129 711 l 401 440 l 674 711 l 757 626 l 486 356 l 757 85 l 674 0 l 401 271 l 129 0 l 46 85 l 317 356 l 46 626 "},"³":{"ha":481,"x_min":0,"x_max":0,"o":"m 226 800 b 357 893 304 800 357 831 b 242 989 357 957 299 989 b 138 911 188 989 138 965 l 44 911 b 244 1069 61 1014 132 1069 b 446 900 353 1069 446 1006 b 354 758 446 839 413 789 b 456 603 421 729 456 671 b 233 414 456 485 356 414 b 26 583 128 414 32 479 l 115 583 b 240 494 125 521 171 494 b 367 606 307 494 367 538 b 226 719 367 678 304 722 "},"©":{"ha":1111,"x_min":0,"x_max":0,"o":"m 556 -22 b 8 524 250 -22 8 219 b 556 1069 8 828 250 1069 b 1103 524 861 1069 1103 828 b 556 -22 1103 219 861 -22 m 556 981 b 97 524 306 981 97 782 b 556 67 97 267 306 67 b 1014 524 806 67 1014 267 b 556 981 1014 782 806 981 m 749 636 b 575 754 732 713 667 754 b 363 531 425 754 363 640 b 578 303 363 401 439 303 b 749 426 669 303 729 346 l 833 426 b 578 214 817 294 704 214 b 274 528 393 214 274 354 b 576 843 274 708 388 843 b 833 636 706 843 808 765 "},"Á":{"ha":976,"x_min":0,"x_max":0,"o":"m 249 263 l 129 0 l -11 0 l 489 1092 l 989 0 l 849 0 l 729 263 m 489 806 l 303 382 l 675 382 m 689 1321 l 461 1114 l 400 1151 l 574 1382 "},"Â":{"ha":976,"x_min":0,"x_max":0,"o":"m 249 263 l 129 0 l -11 0 l 489 1092 l 989 0 l 849 0 l 729 263 m 489 806 l 303 382 l 675 382 m 488 1382 l 711 1181 l 629 1117 l 488 1250 l 347 1117 l 267 1181 "},"Ä":{"ha":976,"x_min":0,"x_max":0,"o":"m 249 263 l 129 0 l -11 0 l 489 1092 l 989 0 l 849 0 l 729 263 m 489 806 l 303 382 l 675 382 m 343 1326 b 426 1243 389 1326 426 1289 b 343 1158 426 1196 389 1158 b 258 1243 296 1158 258 1196 b 343 1326 258 1289 296 1326 m 636 1326 b 719 1243 682 1326 719 1289 b 636 1158 719 1196 682 1158 b 551 1243 589 1158 551 1196 b 636 1326 551 1289 589 1326 "},"À":{"ha":976,"x_min":0,"x_max":0,"o":"m 249 263 l 129 0 l -11 0 l 489 1092 l 989 0 l 849 0 l 729 263 m 489 806 l 303 382 l 675 382 m 404 1382 l 578 1151 l 517 1114 l 289 1321 "},"Å":{"ha":976,"x_min":0,"x_max":0,"o":"m 249 263 l 129 0 l -11 0 l 489 1092 l 989 0 l 849 0 l 729 263 m 489 806 l 303 382 l 675 382 m 489 1368 b 615 1242 560 1368 615 1311 b 489 1117 615 1172 560 1117 b 364 1242 419 1117 364 1172 b 489 1368 364 1311 419 1368 m 489 1179 b 553 1242 524 1179 553 1207 b 489 1306 553 1276 524 1306 b 426 1242 456 1306 426 1276 b 489 1179 426 1207 456 1179 "},"Ã":{"ha":976,"x_min":0,"x_max":0,"o":"m 249 263 l 129 0 l -11 0 l 489 1092 l 989 0 l 849 0 l 729 263 m 489 806 l 303 382 l 675 382 m 224 1214 l 228 1221 b 378 1326 265 1275 304 1326 b 501 1290 425 1326 465 1310 b 601 1253 538 1271 571 1253 b 690 1319 642 1253 671 1288 l 756 1265 b 592 1151 724 1200 668 1151 b 476 1188 553 1151 514 1169 b 368 1222 440 1204 404 1222 b 289 1158 333 1222 303 1188 "},"Ç":{"ha":918,"x_min":0,"x_max":0,"o":"m 863 847 b 586 950 788 914 685 950 b 172 522 351 950 172 754 b 583 97 172 293 350 97 b 863 206 686 97 785 136 l 863 51 b 588 -22 782 4 679 -22 b 42 518 289 -22 42 215 b 599 1069 42 828 290 1069 b 863 999 690 1069 783 1047 m 424 -251 l 350 -214 l 471 -24 l 569 -64 "},"É":{"ha":724,"x_min":0,"x_max":0,"o":"m 100 1047 l 663 1047 l 663 928 l 231 928 l 231 635 l 650 635 l 650 515 l 231 515 l 231 119 l 663 119 l 663 0 l 100 0 m 563 1321 l 335 1114 l 274 1151 l 447 1382 "},"Ê":{"ha":724,"x_min":0,"x_max":0,"o":"m 100 1047 l 663 1047 l 663 928 l 231 928 l 231 635 l 650 635 l 650 515 l 231 515 l 231 119 l 663 119 l 663 0 l 100 0 m 378 1382 l 601 1181 l 519 1117 l 378 1250 l 238 1117 l 157 1181 "},"Ë":{"ha":724,"x_min":0,"x_max":0,"o":"m 100 1047 l 663 1047 l 663 928 l 231 928 l 231 635 l 650 635 l 650 515 l 231 515 l 231 119 l 663 119 l 663 0 l 100 0 m 233 1326 b 317 1243 279 1326 317 1289 b 233 1158 317 1196 279 1158 b 149 1243 186 1158 149 1196 b 233 1326 149 1289 186 1326 m 526 1326 b 610 1243 572 1326 610 1289 b 526 1158 610 1196 572 1158 b 442 1243 479 1158 442 1196 b 526 1326 442 1289 479 1326 "},"È":{"ha":724,"x_min":0,"x_max":0,"o":"m 100 1047 l 663 1047 l 663 928 l 231 928 l 231 635 l 650 635 l 650 515 l 231 515 l 231 119 l 663 119 l 663 0 l 100 0 m 306 1382 l 479 1151 l 418 1114 l 190 1321 "},"Í":{"ha":322,"x_min":0,"x_max":0,"o":"m 226 0 l 96 0 l 96 1047 l 226 1047 m 347 1321 l 119 1114 l 58 1151 l 232 1382 "},"Î":{"ha":322,"x_min":0,"x_max":0,"o":"m 226 0 l 96 0 l 96 1047 l 226 1047 m 160 1382 l 383 1181 l 301 1117 l 160 1250 l 19 1117 l -61 1181 "},"Ï":{"ha":322,"x_min":0,"x_max":0,"o":"m 226 0 l 96 0 l 96 1047 l 226 1047 m 15 1326 b 99 1243 61 1326 99 1289 b 15 1158 99 1196 61 1158 b -69 1243 -32 1158 -69 1196 b 15 1326 -69 1289 -32 1326 m 308 1326 b 392 1243 354 1326 392 1289 b 308 1158 392 1196 354 1158 b 224 1243 261 1158 224 1196 b 308 1326 224 1289 261 1326 "},"Ì":{"ha":322,"x_min":0,"x_max":0,"o":"m 226 0 l 96 0 l 96 1047 l 226 1047 m 90 1382 l 264 1151 l 203 1114 l -25 1321 "},"Ñ":{"ha":1090,"x_min":0,"x_max":0,"o":"m 88 1097 l 874 274 l 874 1047 l 1004 1047 l 1004 -43 l 218 781 l 218 0 l 88 0 m 281 1214 l 285 1221 b 435 1326 322 1275 361 1326 b 558 1290 482 1326 522 1310 b 658 1253 594 1271 628 1253 b 747 1319 699 1253 728 1288 l 813 1265 b 649 1151 781 1200 725 1151 b 533 1188 610 1151 571 1169 b 425 1222 497 1204 461 1222 b 346 1158 390 1222 360 1188 "},"Ó":{"ha":1150,"x_min":0,"x_max":0,"o":"m 575 1069 b 1124 524 875 1069 1124 824 b 575 -22 1124 213 878 -22 b 26 524 272 -22 26 213 b 575 1069 26 824 275 1069 m 575 100 b 993 524 801 100 993 285 b 575 947 993 754 821 947 b 157 524 329 947 157 754 b 575 100 157 285 349 100 m 761 1321 l 533 1114 l 472 1151 l 646 1382 "},"Ô":{"ha":1150,"x_min":0,"x_max":0,"o":"m 575 1069 b 1124 524 875 1069 1124 824 b 575 -22 1124 213 878 -22 b 26 524 272 -22 26 213 b 575 1069 26 824 275 1069 m 575 100 b 993 524 801 100 993 285 b 575 947 993 754 821 947 b 157 524 329 947 157 754 b 575 100 157 285 349 100 m 574 1382 l 797 1181 l 715 1117 l 574 1250 l 433 1117 l 353 1181 "},"Ö":{"ha":1150,"x_min":0,"x_max":0,"o":"m 575 1069 b 1124 524 875 1069 1124 824 b 575 -22 1124 213 878 -22 b 26 524 272 -22 26 213 b 575 1069 26 824 275 1069 m 575 100 b 993 524 801 100 993 285 b 575 947 993 754 821 947 b 157 524 329 947 157 754 b 575 100 157 285 349 100 m 429 1326 b 513 1243 475 1326 513 1289 b 429 1158 513 1196 475 1158 b 344 1243 382 1158 344 1196 b 429 1326 344 1289 382 1326 m 722 1326 b 806 1243 768 1326 806 1289 b 722 1158 806 1196 768 1158 b 638 1243 675 1158 638 1196 b 722 1326 638 1289 675 1326 "},"Ò":{"ha":1150,"x_min":0,"x_max":0,"o":"m 575 1069 b 1124 524 875 1069 1124 824 b 575 -22 1124 213 878 -22 b 26 524 272 -22 26 213 b 575 1069 26 824 275 1069 m 575 100 b 993 524 801 100 993 285 b 575 947 993 754 821 947 b 157 524 329 947 157 754 b 575 100 157 285 349 100 m 504 1382 l 678 1151 l 617 1114 l 389 1321 "},"Õ":{"ha":1150,"x_min":0,"x_max":0,"o":"m 575 1069 b 1124 524 875 1069 1124 824 b 575 -22 1124 213 878 -22 b 26 524 272 -22 26 213 b 575 1069 26 824 275 1069 m 575 100 b 993 524 801 100 993 285 b 575 947 993 754 821 947 b 157 524 329 947 157 754 b 575 100 157 285 349 100 m 310 1214 l 314 1221 b 464 1326 351 1275 390 1326 b 588 1290 511 1326 551 1310 b 688 1253 624 1271 657 1253 b 776 1319 728 1253 757 1288 l 842 1265 b 678 1151 810 1200 754 1151 b 563 1188 639 1151 600 1169 b 454 1222 526 1204 490 1222 b 375 1158 419 1222 389 1188 "},"Š":{"ha":746,"x_min":0,"x_max":0,"o":"m 565 849 b 397 947 526 914 476 947 b 222 799 314 947 222 890 b 368 649 222 717 303 674 l 443 619 b 703 304 592 561 703 479 b 368 -22 703 114 556 -22 b 44 271 199 -22 67 103 l 176 299 b 379 100 175 183 267 100 b 572 304 492 100 572 194 b 392 503 572 417 482 465 l 319 533 b 92 799 200 585 92 653 b 400 1069 92 968 242 1069 b 669 911 517 1069 613 1013 m 246 1382 l 386 1249 l 528 1382 l 610 1318 l 386 1117 l 165 1318 "},"Ú":{"ha":929,"x_min":0,"x_max":0,"o":"m 213 1047 l 213 429 b 465 100 213 258 264 100 b 718 429 667 100 718 258 l 718 1047 l 849 1047 l 849 385 b 465 -22 849 154 706 -22 b 82 385 225 -22 82 154 l 82 1047 m 651 1321 l 424 1114 l 363 1151 l 536 1382 "},"Û":{"ha":929,"x_min":0,"x_max":0,"o":"m 213 1047 l 213 429 b 465 100 213 258 264 100 b 718 429 667 100 718 258 l 718 1047 l 849 1047 l 849 385 b 465 -22 849 154 706 -22 b 82 385 225 -22 82 154 l 82 1047 m 464 1382 l 688 1181 l 606 1117 l 464 1250 l 324 1117 l 243 1181 "},"Ü":{"ha":929,"x_min":0,"x_max":0,"o":"m 213 1047 l 213 429 b 465 100 213 258 264 100 b 718 429 667 100 718 258 l 718 1047 l 849 1047 l 849 385 b 465 -22 849 154 706 -22 b 82 385 225 -22 82 154 l 82 1047 m 319 1326 b 403 1243 365 1326 403 1289 b 319 1158 403 1196 365 1158 b 235 1243 272 1158 235 1196 b 319 1326 235 1289 272 1326 m 613 1326 b 696 1243 658 1326 696 1289 b 613 1158 696 1196 658 1158 b 528 1243 565 1158 528 1196 b 613 1326 528 1289 565 1326 "},"Ù":{"ha":929,"x_min":0,"x_max":0,"o":"m 213 1047 l 213 429 b 465 100 213 258 264 100 b 718 429 667 100 718 258 l 718 1047 l 849 1047 l 849 385 b 465 -22 849 154 706 -22 b 82 385 225 -22 82 154 l 82 1047 m 394 1382 l 568 1151 l 507 1114 l 279 1321 "},"Ý":{"ha":796,"x_min":0,"x_max":0,"o":"m -8 1047 l 142 1047 l 399 600 l 656 1047 l 806 1047 l 464 456 l 464 0 l 333 0 l 333 456 m 626 1321 l 399 1114 l 338 1151 l 511 1382 "},"Ÿ":{"ha":796,"x_min":0,"x_max":0,"o":"m -8 1047 l 142 1047 l 399 600 l 656 1047 l 806 1047 l 464 456 l 464 0 l 333 0 l 333 456 m 269 1326 b 353 1243 315 1326 353 1289 b 269 1158 353 1196 315 1158 b 185 1243 222 1158 185 1196 b 269 1326 185 1289 222 1326 m 563 1326 b 646 1243 608 1326 646 1289 b 563 1158 646 1196 608 1158 b 478 1243 515 1158 478 1196 b 563 1326 478 1289 515 1326 "},"Ž":{"ha":767,"x_min":0,"x_max":0,"o":"m 756 119 l 756 0 l 13 0 l 543 928 l 88 928 l 88 1047 l 756 1047 l 225 119 m 263 1382 l 403 1249 l 544 1382 l 626 1318 l 403 1117 l 182 1318 "},"á":{"ha":772,"x_min":0,"x_max":0,"o":"m 367 89 b 578 325 503 89 578 197 b 367 558 578 451 501 558 b 161 325 238 558 161 446 b 367 89 161 203 235 89 m 696 0 l 571 0 l 571 101 l 568 101 b 347 -22 518 28 440 -22 b 36 329 149 -22 36 143 b 343 669 36 507 154 669 b 568 542 439 669 517 619 l 571 542 l 571 650 l 696 650 m 586 958 l 358 751 l 297 789 l 471 1019 "},"â":{"ha":772,"x_min":0,"x_max":0,"o":"m 367 89 b 578 325 503 89 578 197 b 367 558 578 451 501 558 b 161 325 238 558 161 446 b 367 89 161 203 235 89 m 696 0 l 571 0 l 571 101 l 568 101 b 347 -22 518 28 440 -22 b 36 329 149 -22 36 143 b 343 669 36 507 154 669 b 568 542 439 669 517 619 l 571 542 l 571 650 l 696 650 m 385 1019 l 608 818 l 526 754 l 385 888 l 244 754 l 164 818 "},"ä":{"ha":772,"x_min":0,"x_max":0,"o":"m 367 89 b 578 325 503 89 578 197 b 367 558 578 451 501 558 b 161 325 238 558 161 446 b 367 89 161 203 235 89 m 696 0 l 571 0 l 571 101 l 568 101 b 347 -22 518 28 440 -22 b 36 329 149 -22 36 143 b 343 669 36 507 154 669 b 568 542 439 669 517 619 l 571 542 l 571 650 l 696 650 m 240 964 b 324 881 286 964 324 926 b 240 796 324 833 286 796 b 156 881 193 796 156 833 b 240 964 156 926 193 964 m 533 964 b 617 881 579 964 617 926 b 533 796 617 833 579 796 b 449 881 486 796 449 833 b 533 964 449 926 486 964 "},"à":{"ha":772,"x_min":0,"x_max":0,"o":"m 367 89 b 578 325 503 89 578 197 b 367 558 578 451 501 558 b 161 325 238 558 161 446 b 367 89 161 203 235 89 m 696 0 l 571 0 l 571 101 l 568 101 b 347 -22 518 28 440 -22 b 36 329 149 -22 36 143 b 343 669 36 507 154 669 b 568 542 439 669 517 619 l 571 542 l 571 650 l 696 650 m 336 1019 l 510 789 l 449 751 l 221 958 "},"å":{"ha":772,"x_min":0,"x_max":0,"o":"m 367 89 b 578 325 503 89 578 197 b 367 558 578 451 501 558 b 161 325 238 558 161 446 b 367 89 161 203 235 89 m 696 0 l 571 0 l 571 101 l 568 101 b 347 -22 518 28 440 -22 b 36 329 149 -22 36 143 b 343 669 36 507 154 669 b 568 542 439 669 517 619 l 571 542 l 571 650 l 696 650 m 386 1019 b 513 893 457 1019 513 963 b 386 768 513 824 457 768 b 261 893 317 768 261 824 b 386 1019 261 963 317 1019 m 386 831 b 450 893 421 831 450 858 b 386 957 450 928 421 957 b 324 893 353 957 324 928 b 386 831 324 858 353 831 "},"ã":{"ha":772,"x_min":0,"x_max":0,"o":"m 367 89 b 578 325 503 89 578 197 b 367 558 578 451 501 558 b 161 325 238 558 161 446 b 367 89 161 203 235 89 m 696 0 l 571 0 l 571 101 l 568 101 b 347 -22 518 28 440 -22 b 36 329 149 -22 36 143 b 343 669 36 507 154 669 b 568 542 439 669 517 619 l 571 542 l 571 650 l 696 650 m 121 851 l 125 858 b 275 964 163 913 201 964 b 399 928 322 964 363 947 b 499 890 435 908 468 890 b 588 957 539 890 568 925 l 653 903 b 489 789 621 838 565 789 b 374 825 450 789 411 807 b 265 860 338 842 301 860 b 186 796 231 860 200 825 "},"ç":{"ha":613,"x_min":0,"x_max":0,"o":"m 564 465 b 378 553 514 522 453 553 b 161 325 256 553 161 444 b 386 94 161 192 254 94 b 564 181 458 94 517 128 l 564 21 b 385 -22 507 -10 450 -22 b 36 319 193 -22 36 125 b 392 669 36 521 192 669 b 564 626 450 669 514 656 m 271 -251 l 197 -214 l 318 -24 l 417 -64 "},"é":{"ha":678,"x_min":0,"x_max":0,"o":"m 161 304 b 357 89 163 193 238 89 b 551 215 453 89 504 138 l 657 156 b 356 -22 596 43 482 -22 b 36 319 157 -22 36 128 b 353 669 36 519 143 669 b 657 324 560 669 657 517 l 657 304 m 532 399 b 353 561 517 496 453 561 b 168 399 256 561 183 492 m 539 958 l 311 751 l 250 789 l 424 1019 "},"ê":{"ha":678,"x_min":0,"x_max":0,"o":"m 161 304 b 357 89 163 193 238 89 b 551 215 453 89 504 138 l 657 156 b 356 -22 596 43 482 -22 b 36 319 157 -22 36 128 b 353 669 36 519 143 669 b 657 324 560 669 657 517 l 657 304 m 532 399 b 353 561 517 496 453 561 b 168 399 256 561 183 492 m 338 1019 l 561 818 l 479 754 l 338 888 l 197 754 l 117 818 "},"ë":{"ha":678,"x_min":0,"x_max":0,"o":"m 161 304 b 357 89 163 193 238 89 b 551 215 453 89 504 138 l 657 156 b 356 -22 596 43 482 -22 b 36 319 157 -22 36 128 b 353 669 36 519 143 669 b 657 324 560 669 657 517 l 657 304 m 532 399 b 353 561 517 496 453 561 b 168 399 256 561 183 492 m 193 964 b 276 881 239 964 276 926 b 193 796 276 833 239 796 b 108 881 146 796 108 833 b 193 964 108 926 146 964 m 486 964 b 569 881 532 964 569 926 b 486 796 569 833 532 796 b 401 881 439 796 401 833 b 486 964 401 926 439 964 "},"è":{"ha":678,"x_min":0,"x_max":0,"o":"m 161 304 b 357 89 163 193 238 89 b 551 215 453 89 504 138 l 657 156 b 356 -22 596 43 482 -22 b 36 319 157 -22 36 128 b 353 669 36 519 143 669 b 657 324 560 669 657 517 l 657 304 m 532 399 b 353 561 517 496 453 561 b 168 399 256 561 183 492 m 289 1019 l 463 789 l 401 751 l 174 958 "},"í":{"ha":353,"x_min":0,"x_max":0,"o":"m 239 0 l 114 0 l 114 650 l 239 650 m 363 958 l 135 751 l 74 789 l 247 1019 "},"î":{"ha":353,"x_min":0,"x_max":0,"o":"m 239 0 l 114 0 l 114 650 l 239 650 m 175 1019 l 399 818 l 317 754 l 175 888 l 35 754 l -46 818 "},"ï":{"ha":353,"x_min":0,"x_max":0,"o":"m 239 0 l 114 0 l 114 650 l 239 650 m 31 964 b 114 881 76 964 114 926 b 31 796 114 833 76 796 b -54 881 -17 796 -54 833 b 31 964 -54 926 -17 964 m 324 964 b 407 881 369 964 407 926 b 324 796 407 833 369 796 b 239 881 276 796 239 833 b 324 964 239 926 276 964 "},"ì":{"ha":353,"x_min":0,"x_max":0,"o":"m 239 0 l 114 0 l 114 650 l 239 650 m 106 1019 l 279 789 l 218 751 l -10 958 "},"ñ":{"ha":726,"x_min":0,"x_max":0,"o":"m 211 563 l 214 563 b 410 669 253 632 331 669 b 640 388 593 669 640 546 l 640 0 l 515 0 l 515 372 b 372 558 515 483 500 558 b 211 299 211 558 211 417 l 211 0 l 86 0 l 86 650 l 211 650 m 99 851 l 103 858 b 253 964 140 913 179 964 b 376 928 300 964 340 947 b 476 890 413 908 446 890 b 565 957 517 890 546 925 l 631 903 b 467 789 599 838 543 789 b 351 825 428 789 389 807 b 243 860 315 842 279 860 b 164 796 208 860 178 825 "},"ó":{"ha":750,"x_min":0,"x_max":0,"o":"m 375 669 b 722 324 569 669 722 519 b 375 -22 722 128 569 -22 b 28 324 181 -22 28 128 b 375 669 28 519 181 669 m 375 550 b 153 324 251 550 153 447 b 375 97 153 201 251 97 b 597 324 499 97 597 201 b 375 550 597 447 499 550 m 575 958 l 347 751 l 286 789 l 460 1019 "},"ô":{"ha":750,"x_min":0,"x_max":0,"o":"m 375 669 b 722 324 569 669 722 519 b 375 -22 722 128 569 -22 b 28 324 181 -22 28 128 b 375 669 28 519 181 669 m 375 550 b 153 324 251 550 153 447 b 375 97 153 201 251 97 b 597 324 499 97 597 201 b 375 550 597 447 499 550 m 374 1019 l 597 818 l 515 754 l 374 888 l 233 754 l 153 818 "},"ö":{"ha":750,"x_min":0,"x_max":0,"o":"m 375 669 b 722 324 569 669 722 519 b 375 -22 722 128 569 -22 b 28 324 181 -22 28 128 b 375 669 28 519 181 669 m 375 550 b 153 324 251 550 153 447 b 375 97 153 201 251 97 b 597 324 499 97 597 201 b 375 550 597 447 499 550 m 229 964 b 313 881 275 964 313 926 b 229 796 313 833 275 796 b 144 881 182 796 144 833 b 229 964 144 926 182 964 m 522 964 b 606 881 568 964 606 926 b 522 796 606 833 568 796 b 438 881 475 796 438 833 b 522 964 438 926 475 964 "},"ò":{"ha":750,"x_min":0,"x_max":0,"o":"m 375 669 b 722 324 569 669 722 519 b 375 -22 722 128 569 -22 b 28 324 181 -22 28 128 b 375 669 28 519 181 669 m 375 550 b 153 324 251 550 153 447 b 375 97 153 201 251 97 b 597 324 499 97 597 201 b 375 550 597 447 499 550 m 290 1019 l 464 789 l 403 751 l 175 958 "},"õ":{"ha":750,"x_min":0,"x_max":0,"o":"m 375 669 b 722 324 569 669 722 519 b 375 -22 722 128 569 -22 b 28 324 181 -22 28 128 b 375 669 28 519 181 669 m 375 550 b 153 324 251 550 153 447 b 375 97 153 201 251 97 b 597 324 499 97 597 201 b 375 550 597 447 499 550 m 110 851 l 114 858 b 264 964 151 913 190 964 b 388 928 311 964 351 947 b 488 890 424 908 457 890 b 576 957 528 890 557 925 l 642 903 b 478 789 610 838 554 789 b 363 825 439 789 400 807 b 254 860 326 842 290 860 b 175 796 219 860 189 825 "},"š":{"ha":533,"x_min":0,"x_max":0,"o":"m 347 501 b 264 558 332 533 300 558 b 196 494 229 558 196 531 b 347 378 196 438 271 413 b 497 193 424 343 497 296 b 274 -22 497 69 394 -22 b 49 124 179 -22 83 32 l 156 172 b 274 89 182 124 214 89 b 372 181 326 89 372 125 b 326 251 372 215 356 232 l 204 317 b 79 481 132 356 79 392 b 271 669 79 586 165 669 b 449 556 350 669 414 626 m 125 1019 l 265 886 l 407 1019 l 489 956 l 265 754 l 44 956 "},"ú":{"ha":711,"x_min":0,"x_max":0,"o":"m 206 650 l 206 290 b 356 94 206 186 232 94 b 506 290 479 94 506 186 l 506 650 l 631 650 l 631 276 b 356 -22 631 99 547 -22 b 81 276 164 -22 81 99 l 81 650 m 556 958 l 328 751 l 267 789 l 440 1019 "},"û":{"ha":711,"x_min":0,"x_max":0,"o":"m 206 650 l 206 290 b 356 94 206 186 232 94 b 506 290 479 94 506 186 l 506 650 l 631 650 l 631 276 b 356 -22 631 99 547 -22 b 81 276 164 -22 81 99 l 81 650 m 354 1019 l 578 818 l 496 754 l 354 888 l 214 754 l 133 818 "},"ü":{"ha":711,"x_min":0,"x_max":0,"o":"m 206 650 l 206 290 b 356 94 206 186 232 94 b 506 290 479 94 506 186 l 506 650 l 631 650 l 631 276 b 356 -22 631 99 547 -22 b 81 276 164 -22 81 99 l 81 650 m 210 964 b 293 881 256 964 293 926 b 210 796 293 833 256 796 b 125 881 163 796 125 833 b 210 964 125 926 163 964 m 503 964 b 586 881 549 964 586 926 b 503 796 586 833 549 796 b 418 881 456 796 418 833 b 503 964 418 926 456 964 "},"ù":{"ha":711,"x_min":0,"x_max":0,"o":"m 206 650 l 206 290 b 356 94 206 186 232 94 b 506 290 479 94 506 186 l 506 650 l 631 650 l 631 276 b 356 -22 631 99 547 -22 b 81 276 164 -22 81 99 l 81 650 m 271 1019 l 444 789 l 383 751 l 156 958 "},"ý":{"ha":672,"x_min":0,"x_max":0,"o":"m -18 650 l 128 650 l 347 238 l 551 650 l 692 650 l 165 -372 l 24 -372 l 279 111 m 564 958 l 336 751 l 275 789 l 449 1019 "},"ÿ":{"ha":672,"x_min":0,"x_max":0,"o":"m -18 650 l 128 650 l 347 238 l 551 650 l 692 650 l 165 -372 l 24 -372 l 279 111 m 204 964 b 288 881 250 964 288 926 b 204 796 288 833 250 796 b 119 881 157 796 119 833 b 204 964 119 926 157 964 m 497 964 b 581 881 543 964 581 926 b 497 796 581 833 543 796 b 413 881 450 796 413 833 b 497 964 413 926 450 964 "},"ž":{"ha":688,"x_min":0,"x_max":0,"o":"m 668 117 l 668 0 l 3 0 l 443 533 l 78 533 l 78 650 l 686 650 l 246 117 m 224 1019 l 364 886 l 506 1019 l 588 956 l 364 754 l 143 956 "},"Ω":{"ha":1035,"x_min":0,"x_max":0,"o":"m 283 101 b 89 568 182 197 89 360 b 522 1068 89 863 275 1068 b 944 575 782 1068 944 833 b 749 101 944 358 846 189 l 749 97 l 964 97 l 964 0 l 614 0 l 614 71 b 826 553 722 147 826 313 b 521 969 826 749 724 969 b 207 549 329 969 207 785 b 418 71 207 325 311 144 l 418 0 l 69 0 l 69 97 l 283 97 "},"μ":{"ha":711,"x_min":0,"x_max":0,"o":"m 206 650 l 206 290 b 356 94 206 186 232 94 b 506 290 479 94 506 186 l 506 650 l 631 650 l 631 276 b 356 -22 631 99 547 -22 b 206 39 300 -22 242 8 l 206 -372 l 81 -372 l 81 650 "},"π":{"ha":831,"x_min":0,"x_max":0,"o":"m 676 682 l 676 219 b 697 0 676 97 686 40 l 585 0 b 561 210 571 25 561 90 l 561 682 l 304 682 b 200 0 297 490 254 147 l 86 0 b 190 682 142 165 183 483 b 31 664 101 682 61 675 l 14 743 b 225 783 50 767 113 783 l 801 783 l 792 682 "},"€":{"ha":803,"x_min":0,"x_max":0,"o":"m 739 883 b 525 957 697 922 628 957 b 268 676 365 957 285 839 l 678 676 l 646 581 l 256 581 b 254 526 256 565 254 543 b 256 469 254 506 256 483 l 607 469 l 575 374 l 268 374 b 526 89 289 188 378 89 b 739 163 628 89 693 121 l 739 39 b 510 -21 704 10 625 -21 b 146 374 308 -21 179 101 l 38 374 l 69 469 l 136 469 b 133 526 135 483 133 507 b 135 581 133 544 135 565 l 38 581 l 69 676 l 143 676 b 510 1068 174 907 282 1068 b 739 1004 619 1068 701 1035 "},"ℓ":{"ha":707,"x_min":0,"x_max":0,"o":"m 674 171 b 401 -15 610 46 515 -15 b 160 263 232 -15 165 114 l 160 282 b 76 214 133 261 104 236 l 42 281 b 158 385 83 317 124 349 l 158 794 b 385 1156 158 1067 272 1156 b 565 911 508 1156 565 1049 b 269 363 565 724 447 543 l 269 308 b 425 78 271 143 342 78 b 619 221 515 78 583 154 m 269 479 b 488 911 392 619 488 765 b 386 1067 488 1006 460 1067 b 269 800 332 1067 269 1001 "},"℮":{"ha":1317,"x_min":0,"x_max":0,"o":"m 282 508 b 274 501 276 508 274 507 l 274 204 b 286 171 274 192 279 181 b 658 10 382 72 513 10 b 1049 190 815 10 954 81 l 1136 190 b 657 -21 1028 63 851 -21 b 51 524 322 -21 51 222 b 657 1069 51 825 322 1069 b 1264 524 993 1069 1264 825 l 1264 508 m 1040 846 b 1026 882 1040 858 1036 872 b 658 1036 931 975 801 1036 b 289 876 514 1036 383 974 b 274 839 279 867 274 854 l 274 547 b 282 538 274 544 276 538 l 1035 538 b 1040 547 1039 538 1040 544 "},"∂":{"ha":796,"x_min":0,"x_max":0,"o":"m 110 1094 b 353 1178 157 1133 235 1178 b 722 608 542 1178 722 999 b 342 -15 722 247 590 -15 b 63 332 153 -15 63 158 b 372 718 63 569 208 718 b 606 581 503 718 583 625 l 608 581 b 610 644 610 597 610 626 b 340 1079 610 901 489 1079 b 149 1007 251 1079 189 1042 m 354 83 b 594 465 489 83 576 267 b 390 622 574 529 500 622 b 178 332 272 622 178 490 b 351 83 178 188 246 83 "},"∏":{"ha":1015,"x_min":0,"x_max":0,"o":"m 819 944 l 819 -146 l 706 -146 l 706 944 l 308 944 l 308 -146 l 194 -146 l 194 944 l 39 944 l 39 1051 l 976 1051 l 976 944 "},"∑":{"ha":803,"x_min":0,"x_max":0,"o":"m 33 -146 l 33 -67 l 421 451 l 50 969 l 50 1051 l 747 1051 l 747 951 l 210 951 l 210 946 l 553 469 l 179 -29 l 179 -35 l 771 -35 l 771 -146 "},"∙":{"ha":401,"x_min":0,"x_max":0,"o":"m 201 436 b 282 356 246 436 282 399 b 201 275 282 311 246 275 b 121 356 157 275 121 311 b 201 436 121 399 157 436 "},"√":{"ha":835,"x_min":0,"x_max":0,"o":"m 513 -224 l 411 -224 l 181 472 l 72 432 l 50 503 l 253 582 l 435 33 b 460 -79 443 -6 454 -50 l 463 -81 b 482 33 467 -51 474 -6 l 750 1251 l 835 1251 "},"∞":{"ha":1140,"x_min":0,"x_max":0,"o":"m 1067 436 b 840 200 1067 292 957 200 b 572 375 749 200 675 256 b 294 200 494 285 414 200 b 74 431 175 200 74 300 b 306 665 74 567 172 665 b 576 492 415 665 499 583 b 851 665 651 574 726 665 b 1067 438 979 665 1067 572 m 307 272 b 532 428 400 272 471 363 b 296 596 467 508 400 596 b 150 429 203 596 150 518 b 304 272 151 343 213 272 m 842 596 b 615 435 743 596 667 488 b 846 272 711 326 767 272 b 990 431 938 272 990 356 b 843 596 990 533 928 596 "},"∫":{"ha":529,"x_min":0,"x_max":0,"o":"m 485 1185 b 432 1200 472 1193 451 1200 b 358 1164 407 1200 378 1189 b 310 896 322 1119 310 1038 b 329 140 310 660 329 388 b 267 -164 329 -21 301 -111 b 118 -243 235 -218 176 -243 b 22 -219 79 -243 40 -231 l 42 -135 b 107 -151 54 -140 79 -151 b 175 -117 132 -151 158 -140 b 222 140 203 -79 222 -11 b 203 907 222 390 203 667 b 282 1226 203 1072 224 1165 b 422 1286 319 1268 371 1286 b 503 1267 454 1286 488 1276 "},"≈":{"ha":817,"x_min":0,"x_max":0,"o":"m 750 606 b 561 464 711 526 650 464 b 392 525 503 464 461 486 b 257 575 347 551 306 575 b 114 465 189 575 150 524 l 65 506 b 267 649 108 593 182 649 b 429 588 338 649 390 610 b 565 536 481 560 514 536 b 703 646 625 536 663 576 m 750 353 b 561 213 711 275 651 213 b 392 274 503 213 461 235 b 257 324 346 300 306 324 b 114 214 189 324 150 271 l 65 254 b 267 396 108 340 182 396 b 429 338 339 396 389 358 b 567 285 478 310 514 285 b 703 394 625 285 663 324 "},"≠":{"ha":817,"x_min":0,"x_max":0,"o":"m 517 608 l 742 608 l 742 533 l 488 533 l 390 321 l 742 321 l 742 246 l 361 246 l 283 75 l 224 101 l 290 246 l 74 246 l 74 321 l 321 321 l 417 533 l 74 533 l 74 608 l 446 608 l 522 778 l 582 751 "},"≤":{"ha":817,"x_min":0,"x_max":0,"o":"m 82 482 l 82 561 l 738 893 l 738 803 l 161 524 l 161 521 l 738 239 l 738 149 m 75 11 l 75 89 l 743 89 l 743 11 "},"≥":{"ha":817,"x_min":0,"x_max":0,"o":"m 739 560 l 739 482 l 85 149 l 85 239 l 660 519 l 660 522 l 83 803 l 83 893 m 76 11 l 76 89 l 742 89 l 742 11 "},"◊":{"ha":836,"x_min":0,"x_max":0,"o":"m 463 -67 l 368 -67 l 79 525 l 372 1118 l 467 1118 l 756 525 m 447 936 b 419 1018 436 963 425 996 l 415 1018 b 388 936 408 993 400 965 l 185 528 l 389 111 b 415 32 401 81 411 50 l 421 32 b 446 110 425 51 438 90 l 650 522 "}," ":{"ha":401,"x_min":0,"x_max":0,"o":""},"­":{"ha":461,"x_min":0,"x_max":0,"o":"m 383 497 l 383 393 l 79 393 l 79 497 "},"ˉ":{"ha":694,"x_min":0,"x_max":0,"o":"m 599 964 l 599 869 l 97 869 l 97 964 "},"Ω":{"ha":1035,"x_min":0,"x_max":0,"o":"m 283 101 b 89 568 182 197 89 360 b 522 1068 89 863 275 1068 b 944 575 782 1068 944 833 b 749 101 944 358 846 189 l 749 97 l 964 97 l 964 0 l 614 0 l 614 71 b 826 553 722 147 826 313 b 521 969 826 749 724 969 b 207 549 329 969 207 785 b 418 71 207 325 311 144 l 418 0 l 69 0 l 69 97 l 283 97 "},"∕":{"ha":229,"x_min":0,"x_max":0,"o":"m 456 1033 l -156 -22 l -226 17 l 385 1069 "},"∆":{"ha":939,"x_min":0,"x_max":0,"o":"m 46 79 l 404 1079 l 539 1079 l 892 81 l 892 0 l 46 0 m 768 96 l 564 661 b 469 939 539 743 488 869 l 464 939 b 379 683 450 882 404 765 l 163 96 "},"‐":{"ha":461,"x_min":0,"x_max":0,"o":"m 383 497 l 383 393 l 79 393 l 79 497 "}}}
